<?xml version="1.0" standalone="no"?>
<!DOCTYPE svg PUBLIC "-//W3C//DTD SVG 20010904//EN"
 "http://www.w3.org/TR/2001/REC-SVG-20010904/DTD/svg10.dtd">
<svg version="1.0" xmlns="http://www.w3.org/2000/svg"
 width="2965.000000pt" height="2965.000000pt" viewBox="0 0 2965.000000 2965.000000"
 preserveAspectRatio="xMidYMid meet">
<metadata>
Created by potrace 1.14, written by Peter Selinger 2001-2017
</metadata>
<g transform="translate(0.000000,2965.000000) scale(0.100000,-0.100000)"
fill="#000000" stroke="none">
<path d="M14175 29629 c-4192 -188 -8055 -2103 -10742 -5326 -1806 -2166
-2958 -4812 -3308 -7598 -121 -965 -148 -1978 -79 -2945 285 -4023 2189 -7732
5301 -10327 2166 -1806 4812 -2958 7598 -3308 965 -121 1978 -148 2945 -79
4023 285 7732 2189 10327 5301 1806 2166 2958 4812 3308 7598 121 965 148
1978 79 2945 -263 3709 -1898 7153 -4616 9720 -1762 1664 -3928 2880 -6263
3515 -1063 289 -2132 454 -3275 505 -254 11 -1018 11 -1275 -1z m130 -6534
c87 -17 231 -69 258 -92 51 -47 109 -139 143 -229 72 -194 83 -241 83 -381 0
-70 -4 -149 -9 -175 -16 -85 -122 -377 -157 -436 -19 -31 -55 -112 -79 -180
-56 -159 -94 -235 -144 -296 -22 -26 -40 -58 -40 -70 -1 -28 -36 -106 -49
-106 -6 0 -19 -20 -30 -45 -11 -25 -38 -70 -60 -101 -22 -31 -45 -72 -52 -93
-6 -20 -24 -50 -40 -66 -15 -17 -35 -49 -43 -73 -8 -23 -35 -70 -59 -105 -40
-57 -133 -208 -182 -295 -12 -21 -35 -43 -53 -51 -23 -11 -35 -24 -42 -50 -5
-21 -27 -53 -53 -77 -25 -24 -47 -54 -50 -71 -7 -36 -175 -269 -239 -333 -25
-25 -60 -76 -79 -114 -18 -37 -38 -70 -45 -73 -7 -2 -29 -33 -49 -67 -20 -34
-68 -97 -106 -140 -38 -42 -80 -98 -93 -124 -23 -45 -149 -203 -242 -304 -24
-26 -44 -54 -44 -62 0 -8 -14 -24 -30 -36 -17 -12 -39 -38 -49 -58 -11 -21
-36 -53 -56 -72 -21 -19 -68 -80 -106 -135 -38 -55 -85 -122 -104 -150 -19
-27 -61 -75 -92 -105 -32 -31 -114 -125 -183 -210 -69 -84 -160 -194 -203
-244 -44 -50 -91 -111 -105 -136 -14 -25 -65 -86 -112 -135 -75 -79 -88 -97
-93 -134 -6 -48 -30 -78 -93 -119 -26 -16 -49 -41 -61 -66 -13 -30 -27 -43
-53 -51 -25 -8 -49 -31 -87 -81 -28 -38 -71 -86 -94 -106 -45 -39 -95 -104
-150 -196 -18 -31 -54 -70 -85 -93 -30 -22 -63 -56 -73 -77 -11 -20 -38 -59
-61 -86 -23 -28 -47 -64 -54 -80 -7 -17 -38 -58 -68 -92 -30 -33 -60 -76 -67
-95 -36 -100 -51 -115 -140 -141 -40 -12 -46 -17 -59 -58 -16 -49 -64 -120
-107 -160 -15 -14 -49 -71 -76 -127 -36 -77 -54 -105 -76 -117 -16 -8 -51 -43
-78 -78 -26 -35 -65 -76 -86 -93 -21 -16 -82 -88 -136 -160 -54 -71 -123 -159
-154 -195 -30 -36 -79 -99 -109 -140 -29 -41 -72 -95 -94 -120 -23 -25 -61
-73 -85 -108 -23 -35 -65 -86 -92 -113 -27 -27 -49 -56 -49 -64 0 -8 -20 -37
-45 -65 -50 -57 -147 -198 -191 -279 -15 -29 -49 -72 -75 -95 -25 -22 -58 -62
-73 -89 -15 -26 -37 -54 -50 -62 -13 -9 -31 -34 -41 -58 -9 -23 -25 -60 -33
-81 -10 -24 -62 -86 -129 -154 -62 -63 -136 -149 -164 -191 -29 -42 -83 -114
-119 -161 -37 -47 -77 -104 -89 -127 -12 -23 -41 -65 -66 -93 -25 -28 -71 -90
-104 -138 -32 -48 -83 -114 -112 -147 -86 -96 -125 -147 -148 -192 -12 -24
-25 -43 -31 -43 -5 0 -41 -44 -82 -97 -40 -54 -89 -116 -109 -138 -20 -22 -57
-71 -81 -110 -25 -38 -95 -137 -157 -220 -104 -140 -141 -210 -141 -265 0 -8
-24 -39 -53 -67 -36 -36 -66 -79 -95 -138 -23 -47 -42 -88 -42 -90 0 -11 186
-4 239 9 31 8 85 17 121 21 36 3 106 15 155 26 128 28 601 80 720 80 96 0 103
1 180 39 77 38 259 168 372 265 54 47 260 273 364 401 33 41 88 118 121 172
33 53 108 169 167 257 59 88 138 212 176 275 38 63 100 164 138 224 38 60 83
138 99 174 17 36 51 97 77 136 342 508 696 1133 1037 1831 51 105 136 267 189
360 54 94 124 223 156 287 89 177 224 398 397 648 177 256 212 304 331 450 48
58 107 137 133 175 26 39 89 115 139 170 50 55 109 128 131 162 22 34 51 69
64 78 13 8 41 42 63 74 23 33 77 92 121 133 44 40 91 90 105 110 31 46 228
269 361 408 55 58 127 134 160 170 153 167 249 265 490 496 142 137 286 270
319 296 33 25 80 71 105 102 25 31 99 97 165 148 66 51 185 144 265 208 154
123 544 402 647 464 84 50 193 99 321 146 363 130 443 160 492 182 73 34 353
114 464 133 111 19 141 19 296 0 354 -44 523 -117 629 -273 21 -31 55 -76 74
-100 49 -58 110 -185 110 -225 0 -18 8 -67 19 -109 28 -114 28 -365 -1 -510
-42 -212 -87 -337 -167 -468 -18 -30 -54 -107 -79 -170 -106 -264 -398 -768
-603 -1039 -51 -68 -119 -165 -149 -215 -31 -50 -74 -108 -95 -128 -21 -20
-63 -74 -94 -120 -187 -275 -539 -707 -715 -878 -37 -36 -73 -77 -80 -91 -8
-15 -118 -127 -245 -250 -127 -123 -254 -252 -283 -286 -28 -35 -76 -81 -105
-102 -30 -22 -64 -54 -76 -71 -12 -17 -54 -58 -93 -92 -38 -33 -62 -58 -51
-55 10 4 51 11 89 17 39 6 113 20 165 32 120 26 324 28 498 4 120 -16 343 -81
433 -127 92 -46 229 -190 284 -299 68 -135 101 -325 85 -490 -14 -140 -40
-240 -117 -455 -71 -196 -82 -219 -122 -276 -15 -21 -38 -65 -50 -99 -12 -33
-43 -91 -68 -128 -26 -37 -109 -170 -186 -297 -125 -206 -235 -371 -432 -650
-35 -49 -91 -116 -125 -148 -33 -31 -77 -85 -97 -120 -44 -76 -116 -167 -178
-227 -26 -25 -67 -75 -90 -111 -24 -36 -85 -113 -135 -170 -51 -57 -124 -145
-161 -196 -95 -127 -169 -215 -259 -303 -42 -41 -115 -128 -163 -192 -48 -64
-91 -119 -96 -123 -6 -3 28 -56 75 -118 91 -120 140 -212 181 -338 14 -43 31
-79 36 -79 36 0 189 114 287 215 36 37 107 98 158 137 51 38 125 107 165 151
39 45 100 109 133 142 34 33 94 99 133 146 39 48 96 106 126 129 31 24 83 75
117 114 34 39 157 168 273 286 268 272 508 528 739 790 100 113 224 250 276
305 52 55 115 125 140 155 24 30 80 93 125 140 91 97 138 156 251 320 43 63
113 161 156 217 42 56 117 162 167 236 49 74 110 160 135 190 24 30 54 75 67
98 12 24 41 69 64 99 22 30 56 80 74 110 19 30 57 84 86 120 74 91 243 325
330 455 40 61 82 115 93 122 10 6 22 26 26 45 4 23 27 53 76 100 55 53 75 80
91 125 12 32 45 90 74 128 29 39 59 84 68 100 8 17 53 75 100 131 46 55 92
116 102 135 24 47 55 79 77 79 13 0 21 12 29 46 8 31 28 63 60 99 27 29 56 68
63 87 8 18 24 42 36 53 13 11 39 45 60 75 21 30 50 66 64 80 15 13 40 47 56
75 16 28 41 62 55 75 15 14 45 55 66 93 22 37 53 77 70 89 16 12 44 45 62 73
44 69 191 259 249 322 27 29 48 61 48 74 0 12 18 40 41 63 23 22 81 93 130
156 48 63 135 167 194 230 58 63 137 156 175 205 38 50 89 107 114 127 24 21
48 48 52 60 3 13 39 55 78 93 39 39 119 129 176 200 58 72 168 196 245 276
288 302 404 427 482 521 79 95 271 301 535 572 75 78 157 166 182 196 25 30
90 95 145 144 56 50 119 111 141 137 21 26 86 88 143 138 57 50 113 109 125
130 12 20 64 74 116 120 52 45 118 107 146 138 29 31 71 69 93 84 23 14 69 55
102 89 33 34 80 76 105 93 25 17 83 66 130 107 47 42 135 115 197 163 61 48
151 120 200 162 85 72 312 215 461 289 64 32 85 38 155 40 45 2 111 11 147 21
74 19 122 16 218 -16 64 -21 92 -51 92 -97 0 -11 7 -33 15 -48 20 -39 19 -63
-5 -124 -28 -72 -78 -146 -147 -221 -33 -35 -70 -80 -83 -99 -14 -19 -60 -72
-102 -118 -43 -45 -78 -87 -78 -93 0 -5 -53 -65 -118 -132 -65 -67 -165 -176
-222 -242 -114 -130 -400 -431 -430 -452 -10 -7 -41 -42 -69 -77 -29 -36 -67
-74 -86 -86 -18 -11 -38 -34 -44 -51 -6 -17 -63 -83 -128 -148 -65 -64 -170
-176 -233 -250 -63 -74 -167 -188 -231 -255 -63 -67 -141 -150 -173 -186 -32
-36 -148 -155 -259 -265 -111 -110 -290 -295 -397 -410 -107 -115 -249 -266
-315 -335 -66 -69 -136 -143 -156 -165 -19 -22 -117 -120 -217 -218 -100 -98
-214 -215 -253 -260 -76 -87 -414 -442 -463 -486 -16 -14 -40 -39 -55 -55 -27
-30 -166 -169 -211 -210 -14 -13 -36 -42 -50 -65 -14 -24 -59 -70 -100 -104
-41 -33 -86 -75 -100 -93 -32 -42 -308 -340 -420 -453 -47 -47 -110 -115 -142
-151 -31 -36 -74 -78 -97 -95 -22 -16 -49 -47 -61 -68 -12 -20 -37 -50 -56
-65 -19 -15 -117 -119 -218 -232 -101 -113 -208 -227 -238 -255 -30 -27 -73
-67 -96 -88 -23 -20 -54 -56 -69 -80 -32 -51 -226 -261 -418 -452 -77 -77
-167 -171 -199 -210 -32 -38 -98 -107 -147 -153 -49 -46 -89 -90 -89 -98 0
-20 -178 -211 -209 -224 -17 -7 -36 -28 -49 -56 -12 -24 -40 -61 -63 -82 -54
-48 -70 -66 -181 -197 -51 -60 -138 -157 -193 -215 -55 -58 -114 -123 -130
-145 -16 -22 -54 -67 -85 -100 -30 -33 -72 -90 -93 -126 -21 -36 -65 -96 -98
-134 -76 -88 -110 -137 -137 -198 -12 -27 -32 -57 -46 -68 -24 -19 -106 -166
-106 -191 0 -8 8 -22 18 -30 37 -34 339 -196 377 -202 22 -4 67 -17 99 -28 90
-30 419 -30 696 1 385 42 517 68 830 166 63 20 139 42 167 50 29 8 88 32 131
54 93 47 510 219 602 249 36 12 94 28 130 37 36 9 81 26 100 38 35 22 95 47
512 215 314 126 402 153 519 159 76 5 102 2 130 -11 38 -18 72 -65 68 -94 -2
-9 3 -28 10 -41 35 -63 -12 -184 -124 -316 -41 -50 -128 -157 -192 -240 -119
-152 -235 -283 -444 -500 -63 -66 -130 -139 -147 -161 -17 -23 -45 -47 -62
-54 -17 -7 -53 -41 -80 -76 -28 -35 -67 -75 -88 -88 -21 -13 -89 -77 -151
-142 -62 -66 -146 -146 -185 -179 -40 -33 -133 -121 -207 -196 -73 -75 -170
-163 -214 -196 -44 -34 -89 -75 -100 -93 -21 -33 -141 -134 -280 -235 -45 -33
-158 -134 -251 -223 -93 -90 -183 -171 -200 -179 -16 -8 -39 -28 -50 -45 -17
-27 -70 -72 -295 -254 -42 -34 -109 -81 -148 -104 -39 -23 -82 -57 -96 -74
-13 -17 -30 -37 -37 -44 -21 -21 -166 -134 -216 -169 -25 -18 -69 -55 -96 -81
-28 -27 -78 -66 -110 -87 -33 -20 -69 -49 -80 -64 -33 -43 -95 -99 -196 -176
-52 -40 -113 -92 -135 -115 -22 -23 -67 -63 -100 -88 -32 -26 -89 -76 -125
-112 -36 -36 -110 -102 -165 -147 -55 -44 -148 -130 -206 -192 -69 -72 -113
-111 -127 -111 -19 0 -57 -38 -48 -48 5 -4 213 133 335 221 86 62 275 168 456
257 56 26 112 59 125 72 97 94 793 462 1205 638 272 115 517 210 630 245 49
15 111 38 137 51 26 13 118 47 205 75 87 28 275 94 417 145 142 52 267 94 277
94 10 0 103 24 206 54 103 29 226 59 273 65 47 7 191 32 320 56 358 67 376 68
725 62 507 -9 766 -53 1025 -172 52 -24 133 -59 180 -77 134 -52 580 -344 580
-379 0 -4 10 -25 23 -46 25 -43 47 -100 47 -125 0 -14 -14 -11 -94 22 -52 22
-110 50 -131 64 -20 14 -46 28 -58 32 -12 4 -141 57 -287 119 -338 143 -426
176 -580 214 -204 50 -365 60 -790 49 -303 -7 -381 -12 -457 -28 -51 -11 -105
-20 -120 -20 -42 0 -299 -48 -375 -71 -36 -11 -135 -37 -220 -59 -328 -85
-489 -130 -574 -163 -49 -19 -114 -40 -144 -47 -69 -16 -259 -89 -455 -173
-83 -36 -204 -82 -270 -102 -66 -21 -158 -57 -205 -80 -47 -23 -132 -59 -189
-80 -58 -20 -155 -63 -216 -95 -62 -31 -129 -60 -150 -64 -20 -4 -66 -23 -102
-42 -40 -21 -79 -34 -102 -34 -32 0 -43 -6 -70 -40 -23 -29 -45 -43 -82 -54
-29 -9 -83 -40 -130 -76 -66 -50 -87 -60 -119 -60 -34 0 -47 -7 -89 -49 -34
-34 -87 -68 -182 -116 -74 -37 -190 -107 -259 -155 -69 -47 -154 -104 -189
-125 -35 -21 -117 -75 -182 -119 -65 -45 -170 -115 -235 -156 -64 -41 -147
-100 -184 -132 -37 -31 -112 -84 -166 -118 -54 -34 -124 -83 -157 -108 -61
-49 -157 -117 -399 -286 -79 -55 -168 -119 -199 -143 -30 -24 -65 -43 -77 -43
-11 0 -28 -10 -36 -22 -9 -13 -31 -32 -50 -43 -92 -55 -189 -125 -261 -190
-44 -39 -120 -105 -170 -145 -49 -41 -124 -104 -165 -140 -87 -77 -259 -197
-286 -200 -66 -7 -114 26 -114 78 0 17 -7 43 -15 58 -35 68 -6 122 109 202 92
64 340 261 455 360 42 36 180 166 306 288 127 122 293 276 370 342 274 238
334 293 417 383 45 50 151 149 235 219 84 71 174 154 201 187 65 78 229 233
247 233 8 0 69 54 137 120 67 66 126 120 131 120 4 0 52 44 106 98 188 188
481 446 570 500 69 43 158 112 241 188 36 34 77 67 90 74 13 7 47 32 77 56 29
24 65 47 79 50 13 4 31 19 40 35 8 16 38 46 67 68 29 21 93 74 143 118 99 87
283 236 449 363 61 46 169 141 240 211 72 69 155 145 185 169 30 23 135 117
234 209 98 91 221 198 273 238 52 40 107 90 123 112 16 21 55 59 88 85 33 25
74 63 90 83 17 21 55 54 85 73 30 19 62 46 70 60 24 39 155 169 237 235 47 38
92 86 123 132 45 66 135 156 199 197 15 10 32 33 38 52 7 19 40 63 73 97 34
34 90 100 125 147 34 47 96 122 137 167 41 46 75 87 75 92 0 12 -34 2 -125
-37 -38 -16 -104 -40 -145 -52 -41 -12 -142 -53 -225 -90 -82 -37 -181 -78
-220 -90 -38 -13 -110 -41 -160 -63 -49 -21 -163 -66 -252 -98 -90 -32 -193
-71 -230 -87 -38 -16 -81 -32 -98 -36 -16 -4 -59 -22 -95 -41 -36 -18 -137
-58 -225 -88 -88 -31 -198 -70 -244 -87 -215 -79 -619 -169 -761 -170 -36 0
-99 -8 -140 -17 -61 -14 -128 -17 -350 -18 -272 0 -276 0 -421 32 -158 35
-263 70 -322 109 -75 49 -219 180 -246 224 -16 25 -36 71 -45 103 -9 31 -20
57 -24 57 -10 0 -117 -110 -128 -131 -11 -21 -541 -573 -823 -858 -118 -119
-291 -296 -385 -395 -143 -149 -381 -365 -641 -581 -31 -26 -37 -38 -46 -95
-7 -41 -19 -76 -35 -97 -13 -17 -24 -36 -24 -41 0 -11 -61 -28 -138 -38 -48
-6 -56 -4 -80 19 -15 14 -52 37 -84 50 -60 27 -71 40 -89 108 -25 97 -23 125
10 176 22 34 31 58 31 89 0 39 -6 49 -76 123 -76 81 -182 161 -213 161 -9 0
-24 -14 -33 -31 -10 -16 -31 -35 -47 -40 -17 -6 -33 -19 -36 -29 -3 -11 -58
-70 -122 -132 -115 -112 -290 -288 -349 -350 -16 -18 -82 -81 -145 -140 -62
-59 -161 -151 -219 -205 -58 -55 -152 -135 -210 -178 -58 -43 -127 -99 -155
-125 -27 -25 -79 -66 -115 -90 -36 -24 -102 -72 -146 -106 -45 -34 -115 -81
-155 -105 -41 -23 -126 -77 -189 -119 -63 -42 -153 -98 -200 -125 -47 -26
-106 -62 -131 -80 -25 -18 -92 -53 -150 -78 -57 -24 -167 -74 -244 -109 -77
-36 -174 -75 -215 -87 -41 -13 -95 -33 -120 -46 -77 -39 -267 -95 -374 -111
-55 -8 -155 -25 -221 -39 -176 -35 -228 -38 -325 -21 -199 35 -331 143 -380
307 -31 103 -23 257 20 367 31 80 47 100 108 133 17 10 38 33 47 54 13 26 41
51 104 92 50 33 129 100 191 162 58 57 155 147 215 200 61 52 159 140 218 195
59 56 144 126 187 156 44 30 115 80 158 111 43 31 101 68 129 83 28 14 78 47
110 74 116 96 310 239 378 279 76 44 532 248 655 293 41 16 131 43 200 60 69
18 150 43 179 57 124 54 634 163 762 163 30 0 73 -5 97 -10 24 -6 110 -17 190
-25 81 -7 180 -22 220 -31 l72 -18 35 34 c20 19 55 59 78 89 23 30 93 111 156
180 159 175 438 502 486 568 22 31 133 164 246 297 113 132 234 283 268 334
34 51 93 127 131 168 39 43 86 109 109 152 22 43 58 95 81 117 26 24 61 79 92
140 28 55 96 165 150 243 55 79 122 185 148 235 25 51 72 134 103 185 85 139
99 170 170 387 77 235 97 325 97 435 0 78 -2 85 -46 164 -43 77 -51 86 -127
133 -45 28 -100 56 -122 63 -22 7 -79 30 -127 52 -80 36 -99 40 -210 48 -68 5
-145 12 -173 16 -63 7 -224 -9 -335 -34 -47 -11 -131 -28 -186 -37 -94 -17
-104 -17 -134 -1 -45 22 -51 21 -82 -14 -16 -18 -36 -30 -51 -30 -13 0 -44 -7
-67 -15 -23 -8 -52 -15 -64 -15 -31 0 -209 -122 -295 -202 -40 -37 -110 -94
-155 -125 -44 -31 -128 -94 -186 -138 -58 -45 -153 -112 -211 -148 -58 -37
-125 -84 -150 -105 -41 -36 -637 -342 -665 -342 -7 0 -54 -16 -105 -36 -52
-20 -146 -47 -209 -61 -63 -13 -156 -33 -206 -44 -110 -23 -453 -41 -534 -28
-71 11 -193 71 -219 108 -22 30 -40 91 -48 158 -4 32 0 51 16 77 35 56 123
131 172 145 24 7 92 37 151 67 59 30 170 78 246 108 77 30 215 89 308 131 158
72 351 149 539 215 44 15 119 46 167 69 47 22 124 49 170 61 46 11 124 36 175
55 51 19 158 53 239 76 81 22 179 53 218 69 39 15 150 49 246 75 l175 47 90
84 c49 46 162 150 250 231 88 81 214 200 280 264 66 63 154 143 195 177 106
86 357 351 525 552 44 52 116 134 161 181 136 144 568 692 720 914 50 72 118
168 153 215 215 289 645 1084 734 1355 81 248 79 235 75 470 l-3 213 -39 56
c-40 58 -169 179 -234 220 -55 33 -118 56 -202 72 -41 8 -104 28 -140 44 -59
27 -73 29 -150 26 -95 -4 -262 -50 -481 -132 -229 -85 -254 -94 -286 -94 -17
0 -35 -4 -38 -10 -3 -5 -34 -18 -69 -29 -71 -22 -334 -134 -411 -175 -38 -21
-58 -26 -83 -21 -31 6 -32 5 -27 -18 6 -22 0 -29 -50 -57 -66 -38 -225 -154
-335 -245 -41 -34 -104 -82 -140 -105 -36 -24 -94 -69 -130 -100 -36 -31 -99
-82 -140 -113 -74 -56 -136 -111 -402 -352 -140 -127 -460 -449 -528 -531 -22
-26 -57 -62 -78 -79 -40 -32 -267 -273 -367 -390 -33 -39 -93 -106 -135 -150
-41 -44 -113 -125 -159 -180 -45 -55 -111 -131 -146 -170 -34 -38 -91 -104
-126 -146 -35 -42 -99 -116 -143 -165 -43 -49 -95 -114 -116 -144 -21 -30 -85
-111 -144 -180 -59 -69 -128 -156 -153 -195 -26 -38 -79 -115 -118 -170 -40
-55 -112 -163 -161 -240 -49 -77 -114 -174 -143 -216 -63 -91 -180 -301 -376
-679 -78 -151 -165 -313 -193 -360 -28 -47 -54 -103 -58 -124 -4 -22 -32 -75
-62 -120 -31 -45 -69 -112 -85 -151 -17 -38 -52 -102 -78 -142 -27 -39 -59
-96 -73 -126 -13 -30 -40 -80 -60 -111 -19 -30 -50 -84 -67 -118 -17 -35 -44
-79 -60 -99 -15 -19 -37 -59 -48 -88 -11 -29 -38 -77 -61 -107 -23 -30 -70
-106 -105 -168 -35 -62 -83 -141 -108 -175 -25 -34 -60 -92 -77 -129 -18 -37
-53 -98 -80 -137 -26 -38 -97 -156 -158 -262 -60 -105 -128 -215 -150 -245
-22 -29 -62 -91 -87 -138 -66 -121 -291 -453 -351 -519 -28 -31 -66 -78 -84
-105 -48 -71 -326 -352 -382 -387 -27 -16 -48 -33 -48 -38 0 -14 -155 -133
-220 -169 -84 -47 -229 -109 -295 -128 -43 -11 -109 -17 -230 -19 -93 -1 -204
-8 -246 -15 -67 -12 -81 -12 -118 3 -56 23 -90 21 -174 -8 -107 -36 -394 -94
-497 -100 -30 -1 -100 -6 -155 -10 -95 -7 -102 -6 -135 17 -29 19 -40 37 -63
107 -24 73 -26 88 -16 124 18 70 80 183 210 387 69 107 129 201 134 209 13 23
-19 0 -92 -65 -38 -33 -88 -75 -113 -94 -25 -18 -70 -57 -100 -85 -30 -28 -86
-73 -125 -100 -38 -27 -95 -69 -126 -92 -64 -49 -273 -163 -364 -198 -33 -13
-82 -26 -108 -30 -26 -4 -54 -14 -62 -22 -23 -22 -95 -44 -160 -47 -33 -2
-103 -7 -155 -11 -113 -9 -316 8 -450 37 -108 23 -270 80 -315 111 -62 43
-202 166 -260 229 -106 114 -173 255 -260 543 -43 145 -48 174 -57 310 -11
186 -11 162 0 395 11 233 35 416 69 525 13 44 36 130 49 190 14 61 47 180 73
265 27 85 64 202 81 260 18 58 46 132 63 165 16 33 43 94 58 135 65 175 110
285 142 343 18 34 44 89 57 122 46 115 346 691 403 771 31 45 69 108 84 140
14 33 52 95 83 139 53 75 142 220 221 360 18 33 68 101 110 151 41 49 88 113
103 140 15 27 56 83 92 124 36 41 87 107 114 145 26 39 76 101 110 139 34 38
125 148 203 245 261 324 406 491 687 786 69 72 147 159 173 193 49 62 230 234
279 265 15 9 50 50 77 90 27 40 64 85 83 99 19 14 58 52 88 83 30 31 109 105
175 162 66 58 147 133 180 167 33 34 89 83 123 110 35 26 73 63 83 81 11 18
37 40 60 50 27 13 47 31 60 56 10 21 36 51 56 66 43 33 89 78 121 121 12 17
53 52 90 78 74 51 165 130 280 245 42 42 98 91 125 108 26 18 57 45 68 61 30
40 180 165 242 202 28 16 106 78 173 137 67 58 179 153 249 211 70 58 154 128
185 155 31 28 110 88 176 135 65 46 161 118 214 160 52 42 122 94 155 117 33
22 104 75 159 117 54 42 140 99 190 127 50 29 114 73 141 98 28 26 81 62 119
80 39 18 93 55 125 85 59 57 160 125 250 171 30 15 63 38 73 50 10 13 37 30
61 38 24 8 80 42 124 74 51 38 109 71 157 88 60 22 79 34 95 60 23 40 148 114
341 205 74 35 150 76 168 92 18 15 40 28 48 28 22 0 72 27 133 72 58 44 444
231 501 243 19 4 61 23 94 41 35 19 101 42 156 55 52 12 165 40 250 62 232 59
292 64 455 32z"/>
<path d="M14195 22883 c-274 -33 -543 -106 -722 -197 -37 -19 -122 -55 -188
-81 -65 -25 -147 -64 -182 -85 -34 -22 -84 -46 -110 -52 -26 -7 -58 -23 -71
-35 -13 -12 -34 -25 -46 -29 -11 -4 -46 -24 -76 -44 -30 -20 -116 -70 -190
-110 -74 -40 -155 -84 -180 -98 -115 -66 -575 -352 -655 -407 -49 -35 -121
-78 -160 -98 -38 -19 -90 -53 -115 -75 -25 -22 -79 -60 -120 -85 -41 -25 -86
-57 -100 -72 -13 -14 -43 -34 -66 -44 -23 -10 -65 -41 -95 -67 -30 -27 -83
-66 -119 -87 -36 -20 -92 -60 -124 -88 -32 -27 -98 -78 -145 -111 -47 -34
-129 -96 -181 -138 -100 -81 -194 -147 -246 -173 -17 -9 -39 -27 -48 -41 -9
-15 -58 -60 -109 -101 -217 -175 -242 -196 -252 -209 -5 -7 -23 -21 -40 -31
-51 -33 -173 -135 -189 -160 -8 -13 -44 -37 -80 -54 -47 -22 -71 -41 -93 -72
-15 -24 -55 -61 -88 -84 -33 -23 -81 -62 -108 -88 -26 -26 -73 -60 -105 -76
-64 -32 -76 -44 -85 -81 -4 -16 -51 -63 -124 -125 -65 -55 -170 -150 -233
-211 -63 -61 -185 -175 -270 -254 -85 -78 -186 -175 -223 -216 -38 -41 -89
-86 -113 -100 -23 -14 -46 -33 -49 -43 -5 -17 -541 -547 -582 -576 -11 -8 -57
-61 -102 -117 -44 -57 -105 -124 -135 -151 -30 -26 -73 -74 -96 -106 -22 -32
-51 -64 -64 -71 -13 -7 -48 -44 -77 -84 -29 -39 -80 -100 -114 -136 -56 -58
-102 -111 -285 -321 -30 -35 -67 -81 -81 -103 -14 -23 -58 -79 -98 -125 -82
-95 -347 -440 -433 -564 -155 -224 -418 -634 -418 -652 0 -12 -15 -39 -34 -61
-18 -21 -48 -68 -66 -104 -18 -36 -48 -86 -66 -111 -19 -26 -34 -58 -34 -72 0
-13 -20 -53 -44 -88 -57 -85 -81 -133 -96 -199 -16 -70 -48 -134 -95 -190 -49
-58 -81 -116 -95 -170 -7 -25 -27 -72 -45 -105 -79 -142 -253 -628 -233 -652
12 -15 -16 -164 -37 -197 -8 -11 -28 -69 -45 -128 -17 -59 -42 -131 -55 -160
-18 -39 -25 -70 -25 -118 0 -49 -7 -80 -27 -125 -23 -51 -27 -74 -28 -155 0
-60 4 -102 12 -115 7 -11 13 -34 13 -51 0 -17 7 -37 16 -45 13 -10 14 -27 9
-95 -6 -66 -4 -91 10 -128 15 -39 16 -50 4 -77 -7 -18 -12 -53 -10 -78 4 -80
49 -282 91 -405 22 -66 40 -132 40 -147 0 -50 134 -156 331 -262 61 -34 97
-47 126 -47 22 0 66 -9 98 -20 73 -25 237 -27 435 -5 215 24 258 34 294 65 17
16 72 45 121 65 192 80 341 168 455 270 25 23 83 69 130 104 47 36 113 91 147
123 34 32 67 58 74 58 7 0 54 42 104 93 50 50 125 124 167 162 85 80 340 370
514 585 64 80 151 180 191 223 43 45 85 101 99 131 13 28 40 67 60 86 19 19
88 111 151 204 170 249 259 370 319 436 33 35 67 87 88 132 19 41 57 101 86
134 28 32 59 73 67 89 29 56 142 224 176 262 19 21 42 55 51 77 9 21 38 68 65
105 76 104 163 237 226 346 69 119 76 130 160 231 36 43 65 87 65 99 1 35 36
101 131 242 51 76 110 163 130 194 21 30 41 69 45 85 4 16 12 36 19 44 6 8 24
38 40 65 15 28 40 64 55 80 15 17 31 41 35 55 4 14 23 44 42 68 20 24 51 82
69 129 19 47 55 125 80 172 26 47 65 120 87 161 78 147 151 276 212 375 34 55
75 132 90 170 37 90 38 91 96 110 56 19 93 14 132 -18 l27 -22 -39 -102 c-42
-110 -61 -142 -110 -185 -24 -22 -30 -35 -29 -62 1 -24 -11 -55 -39 -103 -94
-157 -153 -269 -153 -286 0 -10 -24 -42 -54 -71 -48 -48 -54 -60 -65 -117 -7
-39 -23 -83 -43 -114 -17 -27 -57 -98 -89 -157 -32 -59 -68 -122 -81 -140 -51
-69 -109 -177 -115 -212 -6 -40 -22 -56 -67 -71 -32 -10 -34 -15 -56 -110 -6
-29 -28 -71 -51 -102 -61 -81 -56 -86 15 -17 36 35 66 70 66 77 0 7 16 29 36
48 20 18 70 79 112 133 41 54 100 129 131 165 31 36 67 82 80 101 13 19 72 85
131 145 65 66 112 123 119 144 11 33 63 101 176 231 31 36 74 90 95 120 33 48
91 117 339 400 31 36 93 112 136 170 43 58 107 135 141 172 34 37 81 93 105
125 23 32 72 90 108 128 37 39 82 88 101 110 18 22 75 85 126 140 51 55 106
118 122 140 26 36 81 89 140 137 12 10 22 27 22 38 0 11 32 55 71 97 40 43 94
108 121 146 27 37 54 67 58 67 5 0 46 53 91 118 45 64 96 129 114 145 18 15
50 57 71 95 48 87 252 364 344 467 39 44 106 132 147 195 42 63 193 276 337
473 144 197 271 375 283 395 12 20 45 58 73 83 38 36 50 54 50 76 0 16 10 47
21 68 12 22 36 70 55 107 18 36 38 69 44 73 6 4 43 72 81 152 41 84 86 162
108 186 46 50 53 64 121 231 30 71 69 149 88 174 52 68 92 161 109 254 8 46
33 168 54 271 47 223 45 251 -21 292 -22 14 -51 42 -64 63 -36 57 -66 80 -152
117 -75 33 -103 38 -179 28z"/>
<path d="M24818 21782 c-53 -20 -105 -44 -115 -53 -10 -8 -37 -21 -60 -27 -23
-7 -63 -27 -90 -45 -26 -19 -129 -89 -228 -157 -99 -67 -205 -147 -235 -176
-30 -29 -81 -69 -112 -88 -68 -41 -163 -120 -237 -199 -30 -31 -102 -95 -160
-142 -59 -47 -217 -198 -356 -341 -137 -141 -283 -282 -324 -312 -51 -39 -82
-72 -103 -108 -16 -29 -48 -68 -71 -87 -72 -60 -227 -214 -227 -225 0 -6 -27
-32 -60 -57 -33 -25 -74 -67 -91 -93 -18 -26 -87 -103 -154 -172 -67 -69 -129
-136 -138 -150 -9 -14 -34 -34 -54 -45 -25 -13 -46 -37 -64 -70 -15 -28 -41
-59 -62 -72 -20 -13 -43 -35 -51 -50 -16 -31 -124 -145 -151 -160 -9 -5 -42
-41 -73 -81 -80 -99 -275 -314 -327 -360 -28 -24 -50 -55 -59 -82 -11 -31 -33
-60 -76 -98 -33 -29 -72 -75 -87 -100 -46 -81 -72 -109 -144 -157 -80 -55
-119 -97 -154 -165 -13 -27 -37 -56 -52 -65 -16 -9 -57 -61 -92 -116 -35 -54
-94 -131 -131 -171 -36 -40 -101 -119 -142 -174 -42 -56 -94 -115 -116 -132
-28 -23 -45 -48 -61 -91 -17 -46 -34 -71 -75 -108 -30 -26 -64 -66 -77 -88
-31 -54 -119 -164 -160 -201 -19 -16 -44 -50 -56 -74 -12 -25 -55 -83 -95
-130 -41 -47 -87 -104 -102 -128 -15 -23 -41 -59 -60 -80 -18 -20 -43 -53 -56
-72 -13 -19 -42 -56 -64 -81 -53 -60 -122 -167 -159 -246 -7 -16 -27 -37 -44
-48 -23 -14 -37 -35 -49 -72 -9 -30 -37 -76 -65 -110 -93 -111 -161 -205 -219
-304 -79 -133 -106 -171 -184 -257 -36 -40 -80 -101 -97 -135 l-31 -62 101
105 c56 58 136 141 180 185 43 44 91 98 107 120 15 22 78 90 139 150 60 61
123 128 139 150 15 22 81 92 145 156 64 63 179 184 256 269 139 153 570 605
585 615 5 3 77 78 161 168 84 89 291 304 460 477 169 173 321 332 338 353 16
21 47 51 68 66 48 35 122 114 151 162 12 20 47 56 77 79 30 23 70 64 89 90 19
27 71 78 115 116 46 38 93 87 108 114 16 26 64 79 108 117 44 39 116 110 160
159 101 113 175 192 461 489 127 132 329 342 449 468 120 125 222 227 226 227
5 0 17 16 26 35 10 19 81 101 159 182 77 81 178 191 224 243 47 52 172 185
280 295 238 243 489 516 669 724 74 86 166 190 205 231 56 59 181 208 249 298
20 26 -86 11 -185 -26z"/>
<path d="M13725 15066 c-55 -24 -255 -93 -444 -155 -220 -71 -359 -121 -387
-140 -24 -16 -67 -38 -96 -48 -29 -11 -91 -35 -138 -53 -89 -33 -224 -80 -300
-104 -41 -13 -118 -43 -212 -83 -20 -8 -51 -33 -68 -54 l-31 -39 120 0 c98 0
143 5 248 30 70 17 157 37 193 45 36 8 92 28 125 44 33 16 125 54 205 84 164
63 384 172 492 245 40 27 146 98 236 157 139 93 173 117 160 115 -2 -1 -48
-20 -103 -44z"/>
<path d="M13285 11202 c-41 -9 -104 -15 -151 -14 -68 2 -85 -1 -106 -18 -15
-11 -38 -20 -53 -20 -15 0 -42 -9 -59 -19 -17 -11 -97 -36 -177 -55 -80 -20
-179 -50 -220 -66 -41 -17 -85 -30 -99 -28 -14 2 -32 -4 -40 -13 -8 -9 -53
-28 -100 -42 -47 -15 -116 -43 -154 -62 -37 -20 -84 -42 -104 -49 -48 -17
-293 -136 -312 -152 -8 -6 -75 -46 -149 -88 -73 -42 -152 -94 -175 -117 -22
-22 -122 -96 -220 -165 -252 -176 -490 -370 -688 -560 -93 -90 -173 -164 -178
-164 -25 0 -310 -415 -310 -451 0 -25 86 -70 155 -82 147 -25 594 58 871 162
183 68 434 186 576 269 84 49 205 118 268 154 63 36 185 114 270 173 85 60
213 147 284 194 148 96 348 261 581 477 88 82 176 160 195 174 44 30 466 451
505 503 15 21 25 40 22 43 -34 34 -311 44 -432 16z"/>
</g>
</svg>
